<svg width="200" height="38" viewBox="0 0 200 38" fill="none" xmlns="http://www.w3.org/2000/svg">
<g clip-path="url(#clip0_1276_17388)">
<path d="M10.5059 9.5H14.371L22.5956 23.9314L30.8117 9.5H34.4553L24.0019 27.4377C23.8673 27.738 23.6546 27.9954 23.3866 28.1826C23.1186 28.3697 22.8054 28.4794 22.4806 28.5C22.1515 28.4877 21.8323 28.3826 21.559 28.1964C21.2857 28.0103 21.0691 27.7505 20.9337 27.4464L10.5059 9.5Z" fill="#00DB92"/>
<path d="M36.5731 28.5V9.5H39.7436V28.5H36.5731Z" fill="#00DB92"/>
<path d="M43.059 28.5V25.1793H56.6488C58.3534 25.1793 59.2909 24.1861 59.2909 22.6964C59.2909 21.077 58.3448 20.2436 56.6488 20.2436H48.3219C44.9127 20.2436 42.782 17.968 42.782 14.833C42.782 11.7714 44.755 9.5 48.3688 9.5H61.3875V12.812H48.373C46.9241 12.812 46.0804 13.6757 46.0804 15.1395C46.0538 15.4482 46.0941 15.759 46.1986 16.0502C46.3031 16.3414 46.4691 16.6059 46.6851 16.8252C46.9011 17.0445 47.1618 17.2132 47.449 17.3196C47.7362 17.426 48.0428 17.4675 48.3475 17.4411H56.6488C60.3179 17.4411 62.2867 19.2505 62.2867 22.9295C62.2867 26.1164 60.4415 28.4957 56.6488 28.4957L43.059 28.5Z" fill="#00DB92"/>
<path d="M65.1846 28.5V9.5H68.3551V28.5H65.1846Z" fill="#00DB92"/>
<path d="M71.645 28.5V9.5H84.9152C88.4608 9.5 90.8046 11.1711 90.8046 14.4098C90.8046 16.815 89.6327 18.0284 88.286 18.4602C89.931 19.013 91.1284 20.5286 91.1284 22.7439C91.1284 26.1984 88.8315 28.4914 85.2902 28.4914L71.645 28.5ZM77.1082 20.248V17.4411H84.9408C86.7391 17.4411 87.5872 16.7891 87.5872 15.1439C87.5872 13.1316 86.0658 12.8164 83.722 12.8164H74.8155V25.2009H83.9947C86.2661 25.2009 87.911 24.5489 87.911 22.692C87.911 21.1245 86.9394 20.2393 85.1666 20.2393L77.1082 20.248Z" fill="#00DB92"/>
<path d="M93.9111 28.5V9.5H97.0774V25.175H109.278V28.5H93.9111Z" fill="#00DB92"/>
<path d="M111.537 28.5V9.5H127.73V12.812H114.69V25.175H127.769V28.5H111.537ZM116.996 20.248V17.4411H127.048V20.2393L116.996 20.248Z" fill="#00DB92"/>
<path d="M163.399 14.4055V28.5H160.382L160.433 11.4605C160.433 10.247 161.055 9.5 162.052 9.5C162.311 9.50674 162.566 9.57047 162.798 9.68678C163.031 9.80309 163.236 9.96921 163.399 10.1736L176.149 22.9468V9.5H179.166V26.5439C179.166 27.7789 178.518 28.5 177.594 28.5C177.319 28.4899 177.049 28.423 176.801 28.3034C176.552 28.1839 176.33 28.0142 176.149 27.8048L163.399 14.4055Z" fill="#FFAE00"/>
<path d="M181.787 28.5V9.5H197.98V12.812H184.94V25.1793H198.01V28.5H181.787ZM187.25 20.2436V17.4455H197.303V20.2436H187.25Z" fill="#FFAE00"/>
<path d="M157.39 12.9157L153.981 10.9164L155.298 9.18914C155.437 8.9692 155.491 8.70418 155.447 8.44641C155.405 8.17952 155.265 7.93863 155.055 7.77278C154.851 7.61228 154.595 7.53658 154.339 7.56118C154.081 7.58301 153.841 7.7016 153.665 7.89368L152.178 9.84982L148.126 7.4705C148.044 7.42408 147.951 7.40025 147.857 7.40141C147.765 7.40019 147.673 7.42405 147.593 7.4705L143.519 9.87573L142.015 7.89368C141.842 7.68892 141.599 7.55905 141.335 7.53093C141.071 7.5028 140.806 7.57856 140.596 7.74255C140.385 7.9084 140.245 8.14929 140.204 8.41618C140.164 8.6854 140.23 8.95944 140.387 9.1805L141.716 10.9294L138.35 12.92C138.269 12.9679 138.201 13.0363 138.154 13.1187C138.107 13.2016 138.082 13.2953 138.081 13.3907V24.2423C138.081 24.3377 138.106 24.4315 138.153 24.5141C138.2 24.5967 138.268 24.6653 138.35 24.713L147.61 30.141C147.69 30.1887 147.781 30.2141 147.874 30.2144C147.968 30.214 148.061 30.1887 148.143 30.141L157.407 24.713C157.489 24.6653 157.558 24.5969 157.607 24.5144C157.653 24.4313 157.677 24.3375 157.676 24.2423V13.3864C157.674 13.2891 157.648 13.1937 157.599 13.11C157.548 13.0274 157.476 12.9602 157.39 12.9157ZM156.717 22.3725L147.883 26.6907L139.053 22.3725V20.8612L147.883 25.3564L156.708 20.8612L156.717 22.3725ZM156.717 18.3135L147.883 22.6575L139.057 18.3135V16.8021L147.883 21.2973L156.708 16.8021L156.717 18.3135Z" fill="#FFAE00"/>
</g>
<defs>
<clipPath id="clip0_1276_17388">
<rect width="199.252" height="38" fill="white" transform="translate(0.243042)"/>
</clipPath>
</defs>
</svg>
